<?xml version="1.0" encoding="UTF-8"?>
<svg width="29px" height="31px" viewBox="0 0 29 31" version="1.1" xmlns="http://www.w3.org/2000/svg" xmlns:xlink="http://www.w3.org/1999/xlink">
    <!-- Generator: Sketch 41.2 (35397) - http://www.bohemiancoding.com/sketch -->
    <title>arrow</title>
    <desc>Created with Sketch.</desc>
    <defs></defs>
    <g id="High-Fidelity" stroke="none" stroke-width="1" fill="none" fill-rule="evenodd">
        <g id="desktop+homepage" transform="translate(-443.000000, -1544.000000)" fill="#F0F6E7">
            <g id="mechanics" transform="translate(0.000000, 1276.000000)">
                <g id="step-1" transform="translate(208.000000, 226.000000)">
                    <path d="M263.750034,57.7499866 C263.750034,57.0859233 263.496128,56.4413913 263.027377,55.992172 L250.312518,43.2773131 C249.843768,42.8085625 249.199236,42.5351247 248.535172,42.5351247 C247.871109,42.5351247 247.246108,42.8085625 246.777358,43.2773131 L245.312512,44.7421586 C244.843762,45.1913779 244.570324,45.8359099 244.570324,46.4999732 C244.570324,47.1640365 244.843762,47.8085685 245.312512,48.2577878 L251.035175,53.9999821 L237.285159,53.9999821 C235.878907,53.9999821 235,55.1718585 235,56.4999851 L235,58.9999881 C235,60.3281147 235.878907,61.4999911 237.285159,61.4999911 L251.035175,61.4999911 L245.312512,67.2226541 C244.843762,67.6914047 244.570324,68.3359367 244.570324,69 C244.570324,69.6640633 244.843762,70.3085953 245.312512,70.7773459 L246.777358,72.2421914 C247.246108,72.6914107 247.871109,72.9648485 248.535172,72.9648485 C249.199236,72.9648485 249.843768,72.6914107 250.312518,72.2421914 L263.027377,59.5273325 C263.496128,59.0585819 263.750034,58.4140499 263.750034,57.7499866 Z" id="arrow"></path>
                </g>
            </g>
        </g>
    </g>
</svg>